<svg width="13" height="11" viewBox="0 0 13 11" fill="none" xmlns="http://www.w3.org/2000/svg">
<path d="M0.714111 4.54489C0.319701 4.54489 -3.15309e-05 4.86462 -3.15309e-05 5.25903C-3.15309e-05 5.65344 0.319701 5.97318 0.714111 5.97318L0.714111 5.25903L0.714111 4.54489ZM12.2191 5.76401C12.498 5.48512 12.498 5.03295 12.2191 4.75406L7.67431 0.20928C7.39542 -0.0696096 6.94325 -0.0696096 6.66436 0.20928C6.38547 0.488171 6.38547 0.940341 6.66436 1.21923L10.7042 5.25903L6.66436 9.29884C6.38547 9.57773 6.38547 10.0299 6.66436 10.3088C6.94325 10.5877 7.39542 10.5877 7.67431 10.3088L12.2191 5.76401ZM0.714111 5.25903L0.714111 5.97318L11.7141 5.97318V5.25903V4.54489L0.714111 4.54489L0.714111 5.25903Z" fill="#ECECEC"/>
</svg>
