<svg width="825" height="863" viewBox="0 0 825 863" fill="none" xmlns="http://www.w3.org/2000/svg">
<path fill-rule="evenodd" clip-rule="evenodd" d="M436.413 254.707C436.413 259.773 433.091 266.953 429.246 270.196C427.621 271.566 423.076 274.557 419.147 276.839C401.76 286.942 397.076 295.719 402.712 307.644C404.399 311.217 404.831 313.993 404.815 321.195C404.803 326.176 404.297 331.182 403.69 332.32C402.481 334.584 405.253 337.229 353.741 284.67L334.651 265.193L335.143 269.688C335.413 272.16 336.091 276.205 336.649 278.677C337.206 281.149 337.918 284.745 338.231 286.668C338.545 288.591 339.478 293.31 340.305 297.156C343.218 310.701 349.325 341.931 351.265 353.203L351.8 356.31L342.544 356.929C337.453 357.27 330.149 357.825 326.313 358.163C320.041 358.716 318.988 358.539 315.851 356.397C312.028 353.786 310.296 350.885 309.387 345.577C307.799 336.304 301.98 328.454 295.664 327.064C289.558 325.72 277.086 328.817 281.997 330.458C282.751 330.71 285.088 332.535 287.191 334.512C291.977 339.014 293.818 345.449 293.836 357.748C293.854 369.02 294.577 373.061 297.489 378.17C300.534 383.514 303.546 385.386 311.675 386.994C315.342 387.718 319.584 388.807 321.101 389.412C324.508 390.77 334.783 398.295 334.783 399.432C334.783 400.354 327.009 402.92 319.339 404.531C316.599 405.107 313.236 406.004 311.866 406.526C310.496 407.048 308.254 407.703 306.884 407.979C304.637 408.434 291.054 411.841 286.707 413.039C285.749 413.304 284.179 413.721 283.22 413.964C280.218 414.726 256.618 420.673 255.571 420.93C254.158 421.277 245.963 423.524 243.763 424.168C242.748 424.464 242.3 425.068 242.766 425.511C243.233 425.953 251.236 428.889 260.553 432.034C269.869 435.18 287.803 441.335 300.408 445.713C313.012 450.09 324.34 453.906 325.581 454.192C328.834 454.942 329.179 456.122 327.049 459.225C326.014 460.732 324.139 464.212 322.884 466.959C312.629 489.383 310.362 491.055 296.517 486.411C293.281 485.327 289.395 484.439 287.881 484.439C284.353 484.439 276.994 487.615 274.789 490.089C271.968 493.254 268.017 504.416 269.717 504.416C270.027 504.416 271.89 503.419 273.858 502.199C279.155 498.918 287.02 499.105 293.455 502.667C307.971 510.702 315.076 513.601 320.386 513.654C326.186 513.712 329.529 512.089 333.786 507.148C341.123 498.636 344.497 496.075 352.008 493.323C354.849 492.283 357.292 491.431 357.436 491.431C358.466 491.431 356.931 498.253 351.861 516.205C348.65 527.576 343.237 546.991 339.831 559.352C336.426 571.713 333.418 582.613 333.147 583.574C332.378 586.31 333.909 585.635 338.856 581.06C344.637 575.712 354.669 566.819 366.168 556.849C385.301 540.259 397.682 529.341 400.365 526.691C402.376 524.706 403.333 525.099 405.12 528.637C406.021 530.423 409.384 535.355 412.594 539.597C423.654 554.219 423.867 558.313 414.052 567.794C406.97 574.635 406.062 576.097 405.141 582.147C404.598 585.707 404.944 587.314 407.116 591.314C408.563 593.982 411.04 597.404 412.619 598.92L415.489 601.677L415.511 597.245C415.538 591.87 418.221 585.736 422.089 582.208C423.665 580.771 428.317 577.659 432.428 575.292C446.321 567.292 452.052 559.877 451.03 551.226C450.721 548.612 449.766 545.111 448.907 543.446C446.703 539.173 446.007 530.846 447.278 523.953C447.874 520.72 448.52 517.916 448.713 517.722C449.06 517.375 461.466 529.82 497.606 566.772C507.777 577.172 516.402 585.375 516.775 585.001C517.147 584.628 516.474 579.715 515.278 574.085C514.083 568.453 512.889 562.723 512.626 561.35C512.362 559.976 511 552.784 509.598 545.368C508.196 537.952 505.706 525.192 504.065 517.014C502.424 508.836 500.855 500.521 500.578 498.535L500.074 494.927L506.853 494.882C510.581 494.857 517.892 494.474 523.098 494.032C532.111 493.265 532.73 493.34 536.051 495.612C540.256 498.489 541.783 501.45 543.19 509.458C544.441 516.579 547.191 520.338 553.327 523.316C558.072 525.618 563.037 525.955 567.786 524.294C570.748 523.26 572.115 521.396 569.913 521.396C569.357 521.396 566.947 519.485 564.56 517.151C559.338 512.045 557.961 506.986 558.029 493.16C558.077 483.468 556.092 474.42 553.206 471.172C550.292 467.89 545.172 465.373 540.342 464.847C537.708 464.561 532.862 463.027 529.574 461.44C523.613 458.562 515.608 452.66 516.48 451.785C517.015 451.249 525.935 448.81 545.516 443.845C569.966 437.646 582.34 434.48 583.877 434.028C584.699 433.787 589.183 432.654 593.841 431.509C608.201 427.982 609.861 427.442 609.274 426.49C608.963 425.983 605.25 424.453 601.024 423.09C596.8 421.727 580.788 416.292 565.444 411.011C550.1 405.73 534.407 400.373 530.571 399.107C526.735 397.84 523.605 396.408 523.615 395.923C523.658 393.971 537.187 367.757 539.001 366.111C542.148 363.256 548.901 363.023 555.604 365.536C568.298 370.299 578.892 364.395 581.937 350.858C582.804 347.004 582.652 346.958 578.17 349.736C575.661 351.29 573.177 351.859 569.084 351.816C562.53 351.749 559.835 350.843 552.717 346.312C545.729 341.864 537.312 338.568 531.79 338.116C528.138 337.818 526.4 338.292 522.839 340.555C520.409 342.101 517.353 344.878 516.048 346.729C514.743 348.58 512.769 350.9 511.661 351.885C508.637 354.573 494.964 360.746 494.054 359.834C493.618 359.397 494.82 353.655 496.725 347.075C500.92 332.585 500.808 332.987 507.635 308.143C513.766 285.831 514.259 284.055 517.06 274.229C518.149 270.41 518.848 267.093 518.614 266.858C518.219 266.461 510.369 272.887 502.174 280.314C498.381 283.752 477.424 302.103 461.838 315.634C456.459 320.304 451.485 324.687 450.784 325.373C448.932 327.187 448.841 327.117 445.586 321.378C443.95 318.494 441.49 314.84 440.119 313.259C435.968 308.473 430.435 298.366 430.435 295.57C430.435 292.998 434.553 285.823 436.784 284.506C443.502 280.545 447.797 271.521 446.249 264.618C445.312 260.436 441.011 253.627 438.157 251.805C436.601 250.812 436.413 251.126 436.413 254.707Z" fill="#FF6B2D"/>
</svg>
